<svg width="64" height="64" viewBox="0 0 64 64" fill="none" xmlns="http://www.w3.org/2000/svg">
<path d="M32 0C14.3555 0 0 14.3541 0 32C0 49.6459 14.3555 64 32 64C49.6445 64 64 49.6459 64 32C64 14.3541 49.6445 0 32 0ZM45.913 38.7701C45.913 42.7144 42.7144 45.913 38.7701 45.913H38.6296C36.1461 45.913 33.8268 44.224 33.447 41.7711C33.3774 41.319 33.3732 40.8682 33.433 40.4174C33.6835 38.4835 35.0609 36.9113 36.8835 36.3687L37.287 36.2713L42.0828 35.0497C42.6991 34.8925 43.1304 34.3374 43.1304 33.7016V25.1256C43.1304 24.2602 42.3499 23.6049 41.497 23.7551L28.0348 26.3763C27.1096 26.5391 26.4348 27.3433 26.4348 28.2838V42.9426C26.4348 46.8883 23.2362 50.087 19.2918 50.087H19.1513C16.6678 50.087 14.3485 48.3979 13.9687 45.945C13.8991 45.4929 13.895 45.0421 13.9548 44.5913C14.2052 42.6574 15.5826 41.0852 17.4052 40.5426L17.8087 40.4452L22.6045 39.2237C23.2209 39.0664 23.6522 38.5113 23.6522 37.8755V19.417C23.6522 18.4932 24.3144 17.703 25.2243 17.543L44.2797 13.9339C45.1325 13.7837 45.913 14.439 45.913 15.3043V38.7701Z" fill="black"/>
</svg>
