<svg width="80" height="80" viewBox="0 0 80 80" fill="none" xmlns="http://www.w3.org/2000/svg">
<path d="M77.861 40C77.861 60.91 60.91 77.861 40 77.861C19.09 77.861 2.13904 60.91 2.13904 40C2.13904 19.09 19.09 2.13904 40 2.13904C60.91 2.13904 77.861 19.09 77.861 40Z" fill="white"/>
<path fill-rule="evenodd" clip-rule="evenodd" d="M80 40C80 62.0914 62.0914 80 40 80C17.9086 80 0 62.0914 0 40C0 17.9086 17.9086 0 40 0C62.0914 0 80 17.9086 80 40ZM40 77.861C60.91 77.861 77.861 60.91 77.861 40C77.861 19.09 60.91 2.13904 40 2.13904C19.09 2.13904 2.13904 19.09 2.13904 40C2.13904 60.91 19.09 77.861 40 77.861Z" fill="black"/>
<path d="M52.5989 30.3509H46.1478V23.1016H34.5899V30.3509H27.9221L24.9635 53.9037H55.5575L52.5989 30.3509ZM36.3983 24.9064H44.3394V30.3509H36.3983V24.9064ZM29.5178 32.1558H34.5899V35.9506C33.5376 36.3233 32.7816 37.3263 32.7816 38.5027C32.7816 39.9954 33.9984 41.2099 35.4941 41.2099C36.9897 41.2099 38.2066 39.9954 38.2066 38.5027C38.2066 37.3263 37.4508 36.3233 36.3983 35.9506V32.1558H44.3394V35.9506C43.2872 36.323 42.5311 37.3263 42.5311 38.5027C42.5311 39.9954 43.7479 41.2099 45.2436 41.2099C46.7393 41.2099 47.9561 39.9954 47.9561 38.5027C47.9561 37.3263 47.2003 36.3233 46.1478 35.9508V32.1558H51.003L53.5083 52.0989H27.0128L29.5178 32.1558ZM36.3983 38.5027C36.3983 39.0002 35.9925 39.4051 35.4941 39.4051C34.9956 39.4051 34.5899 39.0002 34.5899 38.5027C34.5899 38.0052 34.9956 37.6003 35.4941 37.6003C35.9925 37.6003 36.3983 38.0052 36.3983 38.5027ZM46.1478 38.5027C46.1478 39.0002 45.7421 39.4051 45.2436 39.4051C44.7451 39.4051 44.3394 39.0002 44.3394 38.5027C44.3394 38.0052 44.7451 37.6003 45.2436 37.6003C45.7421 37.6003 46.1478 38.0052 46.1478 38.5027Z" fill="black"/>
<path d="M62.0321 53.9037C62.0321 57.4478 59.159 60.3209 55.615 60.3209C52.0709 60.3209 49.1979 57.4478 49.1979 53.9037C49.1979 50.3597 52.0709 47.4866 55.615 47.4866C59.159 47.4866 62.0321 50.3597 62.0321 53.9037Z" fill="#FF0000"/>
<path d="M56.4077 51.298V56.8984H55.2237V52.4219H55.1908L53.9083 53.2259V52.1758L55.2948 51.298H56.4077Z" fill="white"/>
</svg>
