<svg width="48" height="48" viewBox="0 0 48 48" fill="none" xmlns="http://www.w3.org/2000/svg">
<path d="M20.8027 28.6218L28.659 24.0094L20.8027 19.3969V28.6218Z" fill="white"/>
<path d="M24 0C10.7438 0 0 10.7438 0 24C0 37.2562 10.7438 48 24 48C37.2562 48 48 37.2562 48 24C48 10.7438 37.2562 0 24 0ZM36 28.2937C36 32.4281 31.8656 32.4281 31.8656 32.4281H16.1344C12 32.4281 12 28.2937 12 28.2937V19.7156C12 15.5812 16.1344 15.5813 16.1344 15.5813H31.8656C36 15.5813 36 19.7156 36 19.7156V28.2937Z" fill="white"/>
</svg>
