<svg width="56" height="104" viewBox="0 0 56 104" fill="none" xmlns="http://www.w3.org/2000/svg">
<g clip-path="url(#clip0_237_602)">
<path d="M30.282 2.00613C29.9981 9.85693 30.5143 15.007 32.4792 23.9773C32.7004 24.9822 32.9143 25.9797 32.9548 26.194C33.364 28.3479 33.2792 29.1385 32.553 29.8552C32.3207 30.088 32.1991 30.1729 31.8857 30.3281C30.8756 30.8269 29.6368 30.849 28.7262 30.3909C27.6571 29.8515 26.8055 28.5584 26.094 26.3972C25.6258 24.9711 25.4894 23.4859 25.6811 21.9453C25.7143 21.6904 25.8359 21.0069 25.9502 20.4232C26.0682 19.8394 26.1493 19.3702 26.1345 19.3813C26.0977 19.4035 24.7926 21.0845 24.5272 21.4465C23.4027 22.9945 22.3815 24.9379 21.729 26.7777C21.0544 28.6841 20.7004 30.5867 20.6009 32.8625C20.564 33.7012 20.5677 34.2147 20.623 36.0657C20.6857 38.2048 20.682 38.8883 20.6046 39.8451C20.4313 41.9214 19.8525 43.5803 18.6654 45.4053C16.7521 48.3388 14.3668 49.3067 11.5944 48.2686C11.0931 48.0802 10.5954 47.8215 10.0534 47.4632C9.44514 47.0642 8.75205 46.3733 8.37233 45.7933C6.83869 43.4547 6.53639 39.9634 7.52072 35.9622C7.84883 34.6322 8.32072 33.2874 9.05067 31.6064C9.45251 30.6791 9.45251 30.6791 9.39353 30.7271C9.02486 31.0153 7.80827 32.0202 7.48385 32.301C6.96403 32.7554 5.73638 33.9894 5.30505 34.4881C3.91519 36.1026 2.8092 37.7651 1.93915 39.5496C0.41657 42.6677 -0.276518 47.0531 0.169565 50.7624C0.37233 52.4618 0.870026 54.3793 1.46357 55.7499C1.8691 56.6883 2.22671 57.3053 2.95666 58.3213C3.80827 59.5146 4.00735 59.8767 4.29491 60.7486C4.60827 61.7128 4.75574 62.5995 4.75574 63.5379C4.75574 64.5022 4.66357 64.9603 4.16588 66.5748C3.80827 67.7312 3.70874 68.0858 3.59445 68.6178C3.13362 70.7607 3.18155 73.2175 3.7456 76.0327C4.10689 77.8578 4.65251 79.4981 5.4009 81.0387C6.32993 82.9488 7.45804 84.4524 8.98431 85.8083C9.65897 86.4105 10.0424 86.8095 10.3926 87.2787C11.1447 88.2799 11.6313 89.2996 11.9779 90.5964C12.0405 90.8254 12.2138 91.6382 12.3686 92.3993C12.7152 94.1135 12.8737 94.7416 13.2166 95.7798C14.1419 98.5691 15.5981 101.181 17.0507 102.655C17.5373 103.147 17.9576 103.468 18.411 103.686C18.8571 103.9 19.1447 103.97 19.5797 103.97C20.1622 103.97 20.6156 103.793 21.0101 103.413C21.5373 102.899 21.7843 102.363 22.4848 100.195C23.7788 96.2157 25.6479 92.0003 27.1189 89.7688C27.6903 88.9006 28.3244 88.1876 28.741 87.9437L28.9143 87.8403L29.0396 87.9844C29.1908 88.1617 29.5115 88.7898 29.847 89.573C30.3447 90.7405 30.717 91.3722 31.1705 91.8304C31.764 92.4289 32.3908 92.7059 33.1613 92.7059C33.6 92.7059 33.8949 92.6394 34.3041 92.4399C34.7686 92.2183 35.1226 91.919 36.129 90.8956C36.6451 90.371 37.2497 89.7873 37.4709 89.5952C38.2968 88.8858 39.2221 88.2541 40.0774 87.8181C40.6156 87.541 40.8368 87.4598 41.5779 87.2418C42.2525 87.046 42.6396 86.8723 43.0857 86.5657C43.9152 85.9967 44.6009 85.1729 45.0691 84.1864C45.5189 83.2333 45.7179 82.2949 45.917 80.1705C46.0792 78.4711 46.1935 77.7063 46.4368 76.779C46.6986 75.7667 47.1852 74.6251 47.6719 73.8899C48.0295 73.3468 48.6488 72.7483 49.4562 72.1683C50.3484 71.5291 50.8092 71.1412 51.3401 70.5981C52.3097 69.6006 53.1097 68.422 53.8433 66.9258C54.9751 64.6093 55.6129 62.1857 55.8968 59.1304C55.9705 58.3213 55.9594 55.6797 55.8783 54.8632C55.5723 51.8448 54.9382 49.4804 53.8101 47.1565C53.3751 46.2662 53.047 45.6824 52.258 44.4078C51.1336 42.5864 50.776 41.8697 50.47 40.8463C50.2009 39.9449 50.1014 39.2281 50.1014 38.2011C50.1014 37.0706 50.2009 36.6161 50.7133 35.4117C51.2368 34.1815 51.3327 33.764 51.3327 32.6593C51.3364 31.8946 51.2995 31.503 51.1668 30.849C50.7391 28.7432 49.5078 26.4193 47.5355 24.0142C46.105 22.2667 44.4203 20.5931 41.4746 17.9922C39.9373 16.6363 39.3696 16.1043 38.9456 15.6166C38.7281 15.3691 38.1567 14.7669 37.6774 14.2792C37.2018 13.7916 36.6193 13.1598 36.3908 12.8753C34.5991 10.6771 33.1981 8.27937 32.1364 5.59718C31.7382 4.59227 31.5133 3.91248 30.9087 1.86574C30.6138 0.871918 30.3705 0.0517349 30.3631 0.0480423C30.3594 0.0443497 30.3226 0.923637 30.282 2.00613ZM32.0811 8.20179C32.9585 10.0306 34.1603 11.9369 35.4396 13.5403C35.9078 14.1241 36.1696 14.4159 36.9216 15.1844C37.3087 15.5797 37.7327 16.0304 37.8617 16.1819C38.4811 16.906 38.8571 17.2718 40.4497 18.6978C42.8387 20.8407 44.6156 22.5734 45.6921 23.811C47.9557 26.4083 49.2313 28.5621 49.7696 30.7013C49.9428 31.4032 50.0055 31.8724 50.0055 32.567C50.0055 33.4795 49.9097 33.8711 49.412 34.9832C48.9806 35.9437 48.8074 36.5977 48.7336 37.5361C48.6341 38.7959 48.8037 40.2811 49.1797 41.4633C49.5373 42.5827 49.8875 43.2699 51.2516 45.5346C52.6046 47.7809 53.2424 49.2661 53.7696 51.4089C54.2415 53.3153 54.4295 54.9224 54.4258 56.9691C54.4258 58.2289 54.3705 59.0602 54.2083 60.1833C53.6995 63.7411 52.4387 66.8149 50.5954 68.9725C50.0092 69.6597 49.5742 70.0255 48.4055 70.8235C47.5391 71.4109 47.2737 71.6215 46.8387 72.0611C45.7106 73.1953 44.7594 74.9872 44.2027 77.0228C44 77.7617 43.8341 78.6078 43.6313 79.9489C43.3069 82.0806 43.1226 82.7567 42.6654 83.4882C42.3557 83.9906 41.7253 84.5818 41.3456 84.7295C41.2645 84.7591 40.9659 84.8515 40.682 84.9327C39.8193 85.1803 39.1226 85.4943 38.1567 86.0706C36.7889 86.8908 35.7898 87.7184 34.2415 89.3107C33.482 90.0976 33.235 90.3008 33.1023 90.2676C32.9954 90.238 32.7189 89.9129 32.5603 89.6321C32.4866 89.4991 32.2322 88.9523 31.9963 88.4203C31.5428 87.397 31.329 86.9943 31.0341 86.5916C30.6396 86.0522 30.0571 85.6347 29.5262 85.5091C29.2571 85.4463 28.7078 85.4352 28.4313 85.4906C27.3548 85.6938 26.153 86.78 25.0027 88.5903C24.0553 90.0866 23.0894 92.0409 22.0239 94.616C21.3161 96.3376 20.8737 97.5679 20.0405 100.158C19.7309 101.115 19.5244 101.636 19.458 101.636C19.3659 101.636 18.9677 101.325 18.6544 101.007C17.4341 99.7846 16.0921 97.3573 15.2627 94.8746C14.9456 93.9288 14.8203 93.4448 14.4885 91.8636C14.1087 90.0681 13.8986 89.3329 13.4894 88.3797C13.1465 87.5817 12.7041 86.8317 12.1106 86.0448C11.6092 85.3835 11.3659 85.1322 10.4147 84.2899C9.36772 83.3626 8.72256 82.6348 8.05528 81.6114C7.41749 80.6397 7.03039 79.8861 6.588 78.7666C5.91703 77.0672 5.44883 75.098 5.235 73.0956C5.21288 72.8924 5.18339 72.3234 5.17233 71.8358C5.13178 70.14 5.28293 69.1609 5.8986 67.1105C6.37417 65.5256 6.52164 64.7054 6.52532 63.6081C6.52532 62.4591 6.22302 60.9037 5.77694 59.7954C5.44883 58.9826 5.16496 58.4949 4.44606 57.5233C3.79353 56.644 3.53546 56.245 3.22579 55.6354C2.56219 54.3239 2.05712 52.7352 1.76956 51.0468C1.25712 48.0284 1.54099 44.4743 2.5327 41.4338C3.22947 39.2946 4.68569 36.7565 6.38155 34.7209C6.78339 34.2369 7.45804 33.4721 7.47279 33.4869C7.47648 33.4906 7.37325 33.8157 7.24791 34.211C6.73915 35.7775 6.39629 37.4474 6.26726 38.9585C6.21933 39.5385 6.21933 41.0606 6.26726 41.6C6.35574 42.5717 6.59537 43.7059 6.87556 44.4669C7.08201 45.0322 7.45067 45.7563 7.78247 46.2588C8.7668 47.7403 10.6249 48.9484 12.4866 49.3252C13.2276 49.473 14.2451 49.4582 14.9862 49.2846C16.5862 48.9114 18.0571 47.7403 19.2995 45.8487C20.5567 43.9349 21.1133 42.4054 21.3714 40.1481C21.4304 39.6567 21.4341 39.3316 21.4193 37.5915C21.3788 32.8293 21.3935 32.2677 21.5705 30.9045C21.8986 28.4033 22.8203 25.8061 24.1954 23.5155C24.7889 22.5253 24.7336 22.5438 24.7373 23.3307C24.741 24.8713 24.9843 26.0794 25.611 27.6718C26.5032 29.9291 27.5686 31.104 29.0875 31.503C29.5705 31.6323 30.4921 31.6618 31.0488 31.5695C32.6267 31.3109 33.7733 30.3429 34.0719 29.0203C34.1456 28.6915 34.1345 27.5018 34.0534 26.9698C33.9502 26.2974 33.7917 25.4772 33.4341 23.811C33.0396 21.9749 32.7521 20.5636 32.553 19.47C31.753 15.0846 31.3364 11.2497 31.2774 7.62914L31.2553 6.37302L31.5318 7.00108C31.6829 7.34467 31.9299 7.88776 32.0811 8.20179Z" fill="black"/>
<path d="M45.7332 32.3897C45.4345 32.4266 44.4944 32.6224 43.2447 32.9032C41.2355 33.3613 39.9562 33.631 38.9129 33.8231C37.1212 34.1519 37.1064 34.1556 36.723 34.3404C35.6834 34.8428 35.112 35.4228 34.3193 36.7713C34.1129 37.1186 33.7848 37.6728 33.5931 37.9979C32.9037 39.1691 32.0705 40.3476 30.8318 41.9067C28.7525 44.5224 27.1931 45.8635 25.5967 46.4066C25.0585 46.5876 24.7304 46.643 24.1479 46.6393C23.5728 46.6393 23.4253 46.6172 22.5811 46.414C22.1166 46.2994 21.958 46.2773 21.6041 46.2773C21.2318 46.2736 21.1617 46.2847 21.0253 46.3585C20.7709 46.4915 20.6198 46.6504 20.4834 46.9238C20.299 47.2932 20.2659 47.5075 20.288 48.1762C20.3027 48.6528 20.3249 48.8228 20.417 49.1774C20.8078 50.6885 21.6705 51.9188 22.6769 52.3843C23.0345 52.5505 23.311 52.6133 23.7239 52.617C24.4539 52.617 25.0327 52.4064 25.9543 51.7968C28.4613 50.1343 30.747 47.7292 33.5857 43.7613C34.5553 42.4091 34.8686 42.0101 35.4806 41.3858C36.0779 40.7725 36.7451 40.2294 37.4308 39.8008C37.9285 39.4905 38.9866 38.9622 39.3442 38.8439C39.9857 38.6334 40.476 38.7257 40.7304 39.1026C40.9626 39.4535 41.029 39.8673 41.0327 41.0089C41.0364 42.7675 41.1212 43.9423 41.3129 44.8697C41.5562 46.0408 41.7958 46.7502 42.3046 47.8068C42.7433 48.7156 42.8797 49.0962 42.994 49.7131C43.064 50.1011 43.0751 50.2821 43.0751 51.2611C43.0751 52.2845 43.0677 52.4175 42.9755 53.016C42.8096 54.0874 42.6253 54.8485 42.0944 56.5997C41.5783 58.3139 41.4198 58.6871 41.0401 59.0713C40.0926 60.0282 38.7838 60.3828 33.5857 61.0848C32.5166 61.2289 31.9967 61.2621 31.4364 61.2178C29.5156 61.0663 28.3654 60.623 27.3553 59.6439C26.8981 59.2006 26.7617 59.1119 26.5553 59.1119C26.3414 59.1119 26.2235 59.1784 26.017 59.4075C25.4493 60.0429 24.8668 61.9678 24.3912 64.783C23.9156 67.6093 23.8014 69.5489 24.0778 70.092C24.1958 70.3247 24.3691 70.3691 24.5313 70.2102C24.5829 70.1548 24.7967 69.8592 25.0032 69.5526C25.9875 68.1043 27.5175 66.3494 28.4502 65.6032C28.9368 65.2152 29.5673 64.8347 29.9691 64.6906C30.4889 64.5022 30.8133 64.4726 32.7378 64.432C34.6106 64.3951 34.8133 64.3877 36.6272 64.299C38.7728 64.1919 39.241 64.2621 39.3774 64.7313C39.4401 64.9382 39.3516 65.1783 38.7765 66.3716C38.1387 67.6942 37.9101 68.2078 37.5083 69.2312C37.1654 70.0994 37.0216 70.3728 36.6456 70.8789C36.3875 71.2262 36.2253 71.385 35.5765 71.9577C35.0124 72.4564 34.2861 73.2582 33.3497 74.4256C32.8041 75.1054 32.6308 75.279 32.3691 75.401C32.1958 75.4822 32.1147 75.497 31.8161 75.497C31.4769 75.497 31.4511 75.4896 30.9424 75.2864C30.2751 75.0167 29.9249 74.9428 29.4567 74.9724C28.7156 75.0204 28.1921 75.2495 27.0788 76.0179C24.5424 77.7691 23.1967 78.5228 21.7848 78.9809C20.3654 79.4427 19.3811 79.4538 18.0834 79.0216C16.358 78.4489 15.2225 77.1226 14.7138 75.0869C14.4594 74.082 14.3967 73.4577 14.3967 72.0242C14.3967 70.7274 14.4299 70.2545 14.6179 68.7361C15.064 65.1894 15.805 62.655 17.5783 58.6243C18.4152 56.7253 18.57 56.3115 18.6069 55.8275C18.6253 55.5874 18.6143 55.5135 18.5516 55.3694C18.4447 55.1256 18.2935 55.0406 18.006 55.0554C17.7037 55.0739 17.4272 55.2142 16.5166 55.8091C14.7543 56.9654 13.6926 57.5085 12.1295 58.0553C11.123 58.41 10.6253 58.6945 10.1866 59.1637C9.75896 59.6181 9.6926 59.8324 9.46771 61.421C9.35711 62.2079 9.34605 63.8298 9.44928 64.4098C9.57462 65.1266 9.90273 66.3236 10.2308 67.2657C10.5663 68.2226 10.6843 68.7952 10.9497 70.7126C11.2189 72.667 11.2815 73.6719 11.4106 78.1201C11.4401 79.1546 11.4843 80.1964 11.5064 80.4292C11.5654 81.0498 11.6871 81.4821 11.9525 82.0178C12.1516 82.4205 12.2179 82.5166 12.476 82.7752C12.6419 82.9414 12.959 83.1963 13.1802 83.3478C14.3451 84.1347 15.112 85.3281 15.4622 86.9019C15.5138 87.1347 15.606 87.7221 15.6686 88.2098C15.8382 89.5656 15.9525 90.0496 16.2327 90.6075C16.4133 90.9696 16.6198 91.2503 16.9921 91.6383C17.4087 92.0668 17.7 92.2922 18.0281 92.451C18.2345 92.5471 18.3083 92.5656 18.5626 92.5619C18.8096 92.5619 18.8908 92.5471 19.0456 92.4621C19.4622 92.2479 19.7202 91.8378 20.2769 90.4967C20.7414 89.3846 21.0659 88.6937 21.3977 88.0952C22.1977 86.6618 22.9903 85.6088 24.0778 84.5485C25.5378 83.1261 27.1304 82.1914 28.6603 81.8626C28.9737 81.7961 29.158 81.7813 29.8069 81.7813C30.4778 81.7777 30.6106 81.7887 30.7986 81.8479C31.252 81.9993 31.5396 82.2838 31.6686 82.7124C31.7276 82.9193 31.7424 83.0855 31.7497 83.6988C31.7608 84.4118 31.7645 84.4451 31.853 84.6002C31.9894 84.8404 32.1368 84.9069 32.4797 84.8884C33.1802 84.8515 34.2014 84.2123 35.2668 83.1483C36.4355 81.9735 37.2281 80.6545 37.8585 78.8294C38.0871 78.1644 38.1866 77.8209 38.5442 76.4761C38.8834 75.2015 39.0603 74.6214 39.3221 73.9564C39.8972 72.4749 40.4834 71.5476 41.8069 70.0476C42.994 68.7028 43.429 68.1524 44.0299 67.2361C44.7894 66.0834 45.4419 64.8088 46.2788 62.8434C47.8861 59.0787 48.5092 57.0061 48.7414 54.6601C48.7967 54.0837 48.7967 52.787 48.7414 52.2217C48.5792 50.6146 48.1037 49.1331 47.359 47.9065C46.9202 47.1824 46.4926 46.6393 45.4751 45.5162C44.1 44.0015 43.6908 43.3512 43.4622 42.3389C43.1156 40.7946 43.7129 38.0422 44.8668 35.8477C45.2465 35.1273 45.394 34.9093 46.2861 33.7492C46.6327 33.2948 46.7838 33.0103 46.7838 32.8071C46.7838 32.6002 46.7322 32.519 46.5516 32.434C46.4041 32.3675 46.0539 32.349 45.7332 32.3897Z" fill="black"/>
</g>
<defs>
<clipPath id="clip0_237_602">
<rect width="56" height="104" fill="white"/>
</clipPath>
</defs>
</svg>
