<svg width="440" height="124" viewBox="0 0 440 124" fill="none" xmlns="http://www.w3.org/2000/svg">
<g clip-path="url(#clip0_237_530)">
<path d="M22.5767 29.3131C20.8773 30.8423 21.6434 34.7957 22.8291 37.1633C23.2456 37.9954 24.6684 40.834 27.3833 41.4055C29.6088 41.8766 31.594 40.5766 33.0351 39.5529C39.1611 35.2071 43.9039 28.9834 48.0781 22.9105C49.9204 20.2321 52.2705 16.9978 56.4691 14.6835C58.2446 13.707 60.2724 12.5891 61.5736 13.4338C63.7018 14.8217 61.9232 20.2164 63.4129 26.5185C63.7747 28.054 64.0362 29.0211 64.5652 30.3368C65.538 32.7484 66.3984 33.4392 66.7146 36.7551C67.1858 41.6505 65.8846 46.1219 64.9118 49.4692C64.0605 52.3989 63.568 53.8434 63.1089 54.4306C61.0264 57.1059 57.3507 57.6523 49.9934 58.745C46.561 59.2537 45.1808 59.4735 43.4965 59.3259C41.7635 59.1752 39.3861 58.9648 37.0208 57.4419C34.9352 56.0979 34.7133 54.9267 33.7769 55.024C33.3938 55.0648 31.822 55.426 30.1742 64.1428C29.4142 68.1684 28.037 77.1489 29.4537 77.5415C30.004 77.6922 30.1986 76.254 33.7769 71.9584C35.3396 70.0807 37.0026 68.0867 39.3952 66.6894C42.1648 65.0722 42.8246 65.9483 54.4565 65.2795C57.1896 65.1225 58.7705 65.0534 59.3147 66.0017C59.789 66.8338 59.1232 67.8324 57.7034 70.8657C55.1223 76.3796 55.6695 76.6089 54.1372 78.7943C52.6992 80.8417 52.5654 80.1414 49.6377 83.5421C46.6826 86.9711 46.4607 88.0984 44.9467 88.4312C42.931 88.8708 42.0584 87.1061 39.3983 87.4044C37.6076 87.6054 36.3884 88.5223 35.4855 89.1691C31.1623 92.2715 25.4984 96.3379 20.4729 96.3034C20.1081 96.3002 16.8155 96.2312 14.0824 94.0174C8.22083 89.2665 9.61628 78.383 10.2639 73.3558C12.2917 57.5989 19.8345 48.7125 17.6577 46.9352C16.1771 45.7263 13.1338 50.1977 5.40862 52.8856C4.34151 53.2562 1.76948 54.0851 0.802693 56.324C0.650682 56.6788 0.553395 57.3791 0.355781 58.7795C0.106483 60.5725 -0.103294 62.2399 0.0547977 64.3626C0.127763 65.3203 0.246333 66.0676 0.398344 66.7145C0.972945 69.1826 1.54755 70.9316 1.85765 71.8077C2.51738 73.6666 2.76972 75.5538 3.27439 79.3313C3.70002 82.5216 3.79427 84.9897 3.96148 89.794C4.24726 98.0681 4.03445 98.8531 4.86139 100.96C6.31461 104.656 8.26035 103.469 10.5679 107.473C13.7206 112.943 11.3066 117.273 15.0704 121.119C15.943 122.011 17.0679 123.16 18.3721 122.981C20.8712 122.636 20.8894 117.835 24.9785 111.508C27.131 108.176 29.2987 106.141 30.685 104.995C34.9839 101.437 38.2551 101.042 39.3922 100.963C40.7724 100.866 42.554 100.743 43.5968 101.893C45.1017 103.557 43.691 106.367 44.7977 107.165C45.8344 107.912 48.3882 106.386 50.5042 104.373C55.7273 99.3963 56.7366 92.8744 58.0105 88.246C61.3456 76.1316 66.1035 78.4018 72.1232 64.0549C75.7015 55.5327 79.8301 45.6917 76.6257 35.8319C73.8166 27.1842 66.6751 25.7554 67.0186 18.1533C67.3318 11.1667 71.0317 5.53339 71.0317 5.53339C72.6005 3.14379 74.2027 1.71506 73.7345 0.882945C73.1933 -0.0841964 70.4693 0.807585 63.7139 2.3368C55.2864 4.24596 55.554 3.74669 54.0886 4.49403C49.5435 6.81768 49.9204 9.90436 44.4967 17.2207C40.4198 22.7221 35.1298 29.8564 28.8821 29.6271C25.9392 29.5141 24.0056 28.0257 22.5767 29.3131Z" fill="white" stroke="white" stroke-width="0.382329" stroke-miterlimit="10"/>
<path d="M78.4529 88.6416C79.6203 90.1049 81.0127 89.973 81.7424 91.8445C82.4173 93.5778 81.7059 95.5749 80.2557 99.4968C79.0427 102.778 78.1093 105.24 77.1608 105.143C76.3703 105.061 75.9052 103.249 75.7288 102.562C75.0904 100.078 76.0176 99.142 75.4522 98.2565C74.0172 96.0082 66.517 99.5722 65.4681 97.6881C65.2735 97.3396 65.4468 97.0696 66.143 95.1541C67.9884 90.0703 67.5233 89.6276 68.5448 88.6416C70.1804 87.0621 71.4756 87.5175 72.7494 85.8501C73.9959 84.2204 73.9412 82.2296 73.9503 81.5074C74.0506 72.7937 83.3993 57.8595 80.2557 55.4574C79.0123 54.5059 76.8811 56.7668 75.443 55.5641C74.3273 54.6315 75.1117 52.8856 74.9718 48.0217C74.8532 43.8579 74.1996 42.4732 74.9718 41.9739C76.2031 41.1732 78.5106 44.2913 83.8584 44.2913C83.8857 44.2944 91.7082 44.778 112.385 43.9804C112.801 43.9647 113.905 43.9145 114.273 44.5425C114.704 45.2804 113.707 46.2475 112.546 48.7878C111.336 51.4349 111.728 51.8997 110.567 53.6204C109.965 54.509 108.995 55.6709 108.718 55.9974C108.131 56.6977 107.648 57.2284 107.417 57.4796C107.344 57.5612 107.289 57.6177 107.283 57.624C100.531 64.8713 97.6853 77.4724 97.6853 77.4724C96.7428 81.6455 96.7398 83.9064 97.9163 84.9175C98.7737 85.6523 99.8499 85.3791 100.686 86.4687C101.458 87.4735 101.689 89.2005 100.987 90.1897C100.504 90.8711 99.7283 90.9841 94.9825 90.8114C90.331 90.6387 89.6317 90.4785 89.2669 89.8819C88.5129 88.651 89.881 86.6665 90.7688 84.9206C95.6787 75.2523 91.088 70.156 96.1743 61.0404C97.74 58.2332 99.1507 56.974 98.5761 55.7682C97.6397 53.7994 92.1977 53.6487 88.668 56.0791C86.1811 57.7904 85.7342 60.0324 83.682 66.2529C79.0639 80.2482 75.8808 85.4136 78.4529 88.6416Z" fill="white" stroke="white" stroke-width="0.382329" stroke-miterlimit="10"/>
<path d="M132.225 67.1697C134.125 68.2625 136.384 69.575 137.312 68.7461C138.449 67.7255 136.482 65.0188 137.88 63.3106C138.616 62.4125 139.884 62.2806 141.294 62.1362C142.62 61.998 143.894 61.8662 144.708 62.5758C145.563 63.32 145.341 64.4913 145.116 68.3378C144.936 71.412 144.699 74.483 144.493 77.5539C144.353 79.6452 144.322 80.3769 143.714 80.9358C142.921 81.6643 141.963 81.3566 138.452 81.6706C136.129 81.8778 135.816 82.0788 135.606 82.2578C135.308 82.5121 134.776 83.1056 134.612 87.5456C134.496 90.67 134.73 91.0939 135.038 91.364C135.956 92.1741 137.838 91.9103 138.595 90.9244C139.194 90.1425 138.674 89.4485 139.163 88.72C139.878 87.6587 141.683 88.092 144.994 88.2804C149.831 88.5567 150.689 87.9036 151.537 88.8676C152.871 90.3874 152.279 93.7661 152.105 94.7427C151.85 96.1934 151.44 96.9219 151.82 97.9738C152.166 98.9284 153.03 99.7762 154.097 100.031C155.489 100.363 156.967 99.6255 157.654 98.561C158.213 97.6912 157.943 97.0726 157.797 92.6859C157.745 91.1567 157.721 90.3905 157.757 90.064C158.119 86.7952 160.131 85.715 159.645 84.3145C159.356 83.4793 158.359 83.159 156.377 82.5561C152.473 81.3628 150.771 82.151 149.752 80.8887C149.287 80.3109 149.418 79.8682 149.573 76.4235C149.783 71.7354 149.591 71.2738 149.935 68.4226C150.448 64.1207 151.081 63.4707 151.376 63.2133C152.455 62.2712 153.85 62.3278 156.374 62.4282C158.858 62.5287 160.226 62.5884 160.925 63.6026C161.825 64.9089 161.095 67.0002 160.639 68.3033C159.925 70.3475 159.174 70.5202 159.216 71.682C159.286 73.5912 161.527 74.9288 162.488 75.5003C164.315 76.5899 168.191 78.1066 170.049 76.2351C170.815 75.4658 171.161 74.1941 170.949 73.1327C170.678 71.7856 169.62 71.3586 168.887 70.5045C165.698 66.7898 169.878 56.4181 170.593 54.6377C171.472 52.4554 172.602 50.2196 171.73 49.2117C171.174 48.568 169.985 48.6339 169.228 48.6779C168.191 48.7375 167.422 49.0672 165.926 49.7329C164.281 50.4614 164.148 50.7126 163.199 50.967C161.91 51.3124 160.876 51.1931 160.42 51.1554C156.273 50.8162 146.204 52.76 144.368 53.1462C144.368 53.1462 142.109 53.6235 141.294 52.7286C141.127 52.5433 140.984 52.3203 140.984 52.3203C140.647 51.7332 140.75 51.1742 139.795 49.7172C139.409 49.1269 136.977 45.6477 135.177 45.9711C133.28 46.3103 134.122 50.4991 131.012 56.3836C129.027 60.1391 127.215 61.2193 127.711 63.207C128.106 64.799 129.653 65.6908 132.225 67.1697Z" fill="white" stroke="white" stroke-width="0.382329" stroke-miterlimit="10"/>
<path d="M189.348 51.6704C189.214 50.719 190.159 49.5477 191.029 48.9825C191.242 48.8444 191.433 48.7502 191.628 48.6811C192.981 48.2132 193.981 48.3734 195.288 48.3765C195.744 48.3765 197.146 48.3702 198.687 47.8772C200.451 47.312 201.056 46.5395 201.712 46.8881C202.415 47.2586 202.457 48.5272 202.475 49.0704C202.542 51.0424 201.503 51.7207 201.478 53.702C201.469 54.509 201.627 55.0805 201.87 55.8875C203.038 59.731 205.266 60.2428 209.155 65.0848C209.431 65.4302 209.909 66.0331 210.292 65.9263C210.763 65.7976 210.702 64.7111 210.863 61.7092C211.031 58.5911 211.183 57.9192 210.72 56.7573C210.31 55.7243 209.781 55.0711 209.586 54.8231C208.647 53.6173 207.847 51.2497 208.535 50.3547C208.915 49.8586 209.58 50.0313 211.091 50.047C215.244 50.0972 216.923 48.8915 217.704 49.8492C218.014 50.2291 217.965 50.6782 217.607 52.6062C217.588 52.7066 216.378 59.2129 216.631 61.9385C216.67 62.3812 216.786 63.4802 217.445 63.7974C217.445 63.7974 217.524 63.8413 217.616 63.857C218.239 63.9795 219.525 63.1411 225.654 57.2064C227.214 55.2846 229.117 52.4083 230.172 48.5586C231.37 44.1782 230.974 40.3442 231.975 40.1841C233.206 39.9894 236.176 45.4342 236.72 46.0309C236.733 46.0466 236.875 46.2004 237.061 46.4171C237.268 46.662 237.365 46.797 238.237 47.8019C238.237 47.8019 241.88 52.0504 241.922 53.5733C241.925 53.702 241.907 53.8277 241.874 53.9595C241.852 54.0475 241.828 54.1165 241.795 54.1793C241.697 54.3646 241.329 54.8921 240.852 55.1653C239.888 55.7211 238.283 55.5296 238.283 55.5296C235.966 55.2532 234.3 58.6194 229.141 63.7628C226.375 66.5198 225.195 67.2106 225.317 68.5703C225.362 69.0633 225.551 69.3427 229.141 72.6932C231.288 74.6966 232.054 75.3748 233.382 75.8207C233.805 75.962 234.012 75.9903 236.088 76.2164C241.114 76.7659 242.208 76.8569 242.503 77.5572C242.752 78.1538 242.266 78.8257 241.53 79.9562C236.964 86.9742 237.505 88.9462 234.668 91.273C234.139 91.7063 233.394 92.237 232.981 93.2575C232.336 94.8495 233.151 96.0208 232.443 96.6362C231.804 97.192 230.303 96.9596 229.81 96.2123C229.299 95.4367 230.214 94.6266 230.129 92.7237C230.114 92.3908 230.071 92.1396 230.014 91.9324C229.78 91.0846 229.591 90.4785 229.539 90.3404C229.007 88.9399 231.44 86.858 231.339 84.9803C231.275 83.7682 230.178 83.0837 226.32 80.6721C219.753 76.568 218.734 75.9369 218.05 76.433C217.388 76.9166 217.619 78.7598 218.084 82.44C218.309 84.2078 218.665 86.1044 218.689 86.23C219.224 89.031 219.394 88.8771 219.358 89.6998C219.27 91.8005 218.193 92.0486 217.962 94.592C217.929 94.95 217.892 95.5874 217.531 96.3128C217.309 96.7587 216.941 97.4966 216.181 97.7886C215.077 98.2094 213.727 97.4715 213.125 96.564C212.843 96.1369 212.773 95.7444 212.7 95.2985C212.019 91.2165 212.195 90.8899 211.757 90.2368C210.824 88.8457 209.365 89.4078 208.893 88.158C208.556 87.2663 209.179 86.7952 209.711 84.4936C210.079 82.911 210.134 81.7272 210.176 80.7161C210.271 78.6122 210.319 77.5603 209.86 77.3028C209.285 76.9825 207.829 77.7801 204.138 82.1574C204.138 82.1574 202.691 84.0445 201.618 86.2583C201.226 87.0684 201.028 87.6399 200.925 88.2679C200.837 88.8049 200.876 89.0184 200.797 89.816C200.767 90.1174 200.642 91.2008 200.478 91.7911C200.046 93.3234 198.034 94.7804 196.872 94.3848C195.717 93.9891 196.243 92.0517 194.525 88.3339C193.826 86.8235 193.464 86.0385 192.643 85.1718C190.497 82.9047 187.937 82.8984 187.776 81.5136C187.688 80.7695 188.411 80.1257 188.755 79.818C190.871 77.9151 193.227 79.7112 196.529 78.6468C198.575 77.9873 199.815 76.5335 202.293 73.6226C204.503 71.0289 205.607 69.729 205.452 68.0302C205.358 67.0034 204.296 65.6626 202.184 62.9715C199.043 58.9711 198.757 60.1046 196.073 56.6569C195.376 55.7619 194.635 55.3977 193.367 54.5404C190.442 52.5685 189.472 52.5622 189.348 51.6704Z" fill="white" stroke="white" stroke-width="0.382329" stroke-miterlimit="10"/>
<path d="M236.723 52.1163C236.446 53.4822 236.893 55.2501 237.778 55.4981C238.173 55.608 238.334 55.3882 238.684 55.4981C239.59 55.7807 239.596 57.5894 239.739 59.15C239.83 60.158 239.897 60.158 240.025 60.5474C240.441 61.8002 240.642 63.8821 240.642 63.8821C241.14 72.6492 242.776 78.2793 242.776 78.2825C243.114 79.4474 243.928 82.0066 243.147 84.6568C243.013 85.1058 242.825 85.6491 242.755 85.7935C242.053 87.1908 240.821 88.2271 240.645 90.3906C240.633 90.5476 240.456 92.9654 241.551 93.3642C242.287 93.6343 242.843 92.7111 244.719 92.4191C245.363 92.3186 246.592 92.1239 247.434 92.6891C248.273 93.2512 248.097 94.1461 248.489 95.5277C249.079 97.6033 250.681 99.8422 251.657 99.7197C252.87 99.569 253.25 95.7444 253.317 94.3094C253.405 92.3531 253.009 92.4348 252.864 88.494C252.827 87.5457 252.833 87.0433 252.563 86.3305C251.945 84.7039 250.894 84.5971 250.301 83.2187C250.179 82.9392 250.121 82.7068 250.103 82.4933C250.027 81.6235 250.252 80.9484 250.307 80.7914C250.933 79.0141 247.844 74.9352 248.993 72.8439C249.541 71.8485 250.392 72.5047 254.815 70.6333C256.336 69.9895 256.816 69.6661 257.308 69.9362C258.041 70.3318 257.743 71.4528 258.141 76.0499C258.254 77.3436 258.321 78.0564 258.391 79.124C258.47 80.3141 258.47 80.6909 258.594 81.7303C258.756 83.0774 258.71 84.4433 258.895 85.7872C258.968 86.3116 259.093 87.1155 258.594 87.8157C258.199 88.3715 257.816 88.2961 257.387 88.7609C256.436 89.8034 256.965 91.6968 257.688 92.8178C258.011 93.3171 258.567 94.1775 259.497 94.3062C260.33 94.4224 260.762 93.8604 261.61 93.4961C264.064 92.441 266.204 94.7521 267.487 93.8666C267.891 93.5872 268.068 93.091 267.91 89.4642C267.694 84.5124 267.241 82.5655 267.271 80.0597C267.274 79.7897 267.308 79.0267 267.183 78.0124C267.083 77.196 266.909 76.6025 266.739 75.5757C266.739 75.5757 266.298 73.8141 266.371 71.9615C266.478 69.2108 271.078 64.4913 270.196 63.2918C269.694 62.6104 267.952 63.7879 266.87 62.8773C265.778 61.9604 266.326 59.5802 266.66 58.1012C267.73 53.344 270.108 51.6829 269.244 49.733C268.952 49.0735 268.363 48.5931 267.183 47.6291C266.013 46.6714 264.997 46.1533 264.705 45.9994C260.601 43.8547 255.284 38.6203 254.347 39.4869C253.587 40.1871 256.208 44.4419 257.235 49.2745C257.311 49.6262 257.728 51.4726 257.989 55.2249C258.552 63.2635 257.764 64.5635 256.977 65.2418C256.767 65.4239 256.117 65.6782 254.821 66.1775C248.598 68.5828 248.239 68.7115 247.759 68.4697C246.616 67.892 246.865 66.4789 245.911 59.6587C245.327 55.5013 245.436 56.3554 245.342 53.4037C245.154 47.4219 246.12 45.1076 245.114 44.5927C244.521 44.2912 242.679 45.8927 238.988 49.0924C237.781 50.1412 236.969 50.8885 236.723 52.1163Z" fill="white" stroke="white" stroke-width="0.376059" stroke-miterlimit="10"/>
<path d="M280.241 43.4464C286.388 42.63 292.922 49.4032 295.944 54.3425C295.983 54.4053 296.008 54.4492 296.038 54.4995C297.096 56.2548 304.864 69.5561 300.03 78.2573C299.182 79.7865 297.877 81.2937 296.713 84.462C295.214 88.5378 295.597 90.1738 294.077 91.3639C293.15 92.0893 292.84 91.59 292.147 92.331C290.9 93.6593 291.697 95.49 290.24 96.9281C289.882 97.2829 289.562 97.5969 289.128 97.5844C287.942 97.5467 287.909 95.1037 285.838 93.3202C285.598 93.1129 284.646 92.5822 282.698 91.6528C281.235 90.9557 280.588 90.7798 279.308 89.9666C274.842 87.1342 272.321 82.6942 271.379 81.0268C267.22 73.6696 267.673 66.7363 267.959 63.1472C268.263 59.3289 268.697 54.6314 272.157 49.8773C274.146 47.1392 276.465 43.9489 280.241 43.4464ZM278.563 54.5026C278.007 57.1466 278.949 58.2079 278.201 60.9366C277.696 62.783 277.152 62.7013 276.572 64.3279C275.219 68.1148 276.955 72.0619 278.554 76.0498C279.478 78.3577 280.053 79.7927 281.552 81.1367C281.734 81.3 284.874 84.0444 288.283 83.4917C293.591 82.6314 296.874 74.216 296.57 67.8605C296.354 63.3859 294.503 59.9412 293.326 57.8123C291.253 54.0567 289.14 52.3705 288.462 51.8587C286.997 50.7502 283.886 48.4643 281.436 49.6261C279.384 50.5995 278.767 53.5261 278.563 54.5026Z" fill="white" stroke="white" stroke-width="0.382329" stroke-miterlimit="10"/>
<path d="M309.4 54.4274C309.789 54.4651 309.917 54.6409 312.86 58.117C313.675 59.081 313.836 59.2662 313.933 59.6619C314.374 61.4266 312.431 62.6889 312.988 63.5838C312.994 63.5933 313.018 63.6278 313.057 63.6686C313.58 64.2118 314.924 63.587 315.903 63.2133C318.284 62.3058 318.378 62.9464 319.475 62.3058C322.017 60.8237 320.95 57.9411 323.689 55.4071C324.291 54.8513 324.926 54.3897 325.3 53.454C325.753 52.3235 325.513 51.2967 325.465 51.0424C324.723 47.0545 334.862 35.2949 333.445 33.9322C333.266 33.7595 333.047 33.8976 330.204 34.6387C326.067 35.7157 325.714 35.6372 325.009 36.1145C323.634 37.044 323.771 38.165 322.595 41.9833C321.144 46.6934 320.196 49.6262 317.755 50.6499C316.681 51.0989 315.067 51.2842 314.049 50.5777C313.219 50.003 313.216 49.1364 312.383 45.7263C311.622 42.6144 311.379 42.3161 311.069 42.1905C310.425 41.9331 309.196 42.3161 305.308 46.6337C298.598 54.0851 299.446 56.0665 295.494 58.365C294.311 59.0527 292.843 59.687 292.493 61.0592C292.265 61.9573 292.533 63.1128 294.415 65.3611C296.713 68.1087 298.765 69.3113 299.927 70.2753C304.426 74.0057 303.286 80.5182 306.934 93.8007C307.196 94.7522 307.78 96.7838 309.236 97.1512C309.917 97.3239 310.297 97.0067 314.52 94.6014C316.207 93.6406 316.961 93.2261 317.682 92.2998C318.402 91.3735 318.527 90.6575 318.84 89.8348C320.013 86.7607 323.011 84.2769 325.93 83.4511C327.748 82.9361 329.286 83.4291 329.636 83.5233C333.086 84.4339 334.485 87.4232 335.361 86.9585C335.832 86.7073 335.896 85.668 335.257 82.0255C334.71 78.9074 334.342 76.7973 334.454 74.4579C334.628 70.9222 335.768 69.6944 334.725 68.4352C333.935 67.4838 332.524 67.2766 330.676 67.0065C328.873 66.7427 327.505 66.5449 326.836 67.2514C326.064 68.0679 326.45 69.8451 326.933 72.0526C327.152 73.0637 327.383 73.7074 326.988 74.326C326.665 74.8284 326.188 74.9132 325.109 75.4878C324.695 75.7076 324.112 76.1033 322.944 76.8946C322.944 76.8946 320.992 78.2197 319.332 79.6641C315.666 82.8607 315.368 85.8846 314.082 85.8155C313.006 85.759 312.829 83.6206 311.194 79.2936C308.719 72.7497 307.482 69.4777 304.736 66.8212C303.949 66.0613 302.943 65.2386 302.739 63.857C302.663 63.3515 302.617 62.2336 305.053 58.7952C307.178 55.8059 308.236 54.3112 309.4 54.4274Z" fill="white" stroke="white" stroke-width="0.382329" stroke-miterlimit="10"/>
<path d="M366.865 -0.985397C368.474 -0.592889 367.476 6.07976 367.85 15.3021C368.258 25.3598 370.054 32.7484 372.703 43.5377C373.654 47.4156 374.822 51.4883 376.831 56.2047C377.889 58.6853 378.418 59.9257 378.737 60.3088C384.298 66.9218 399.429 56.2832 414.262 60.3527C418.695 61.5679 420.337 63.3295 426.882 64.7363C429.971 65.3988 431.4 66.187 432.154 67.063C433.987 69.1952 432.151 71.3398 433.738 74.0999C435.541 77.2337 438.973 76.3263 439.831 78.7221C441.016 82.0318 435.586 86.9052 434.851 87.5614C433.042 89.1848 430.123 90.579 424.359 93.3078C418.418 96.1181 415.837 97.0162 414.344 99.7104C414.019 100.294 413.451 101.5 412.277 102.995C411.411 104.097 409.991 105.642 408.939 106.279C404.585 108.911 398.736 100.706 392.993 102.832C389.944 103.959 388.405 107.451 387.755 108.93C385.392 114.296 387.445 119.132 385.438 120.096C384.286 120.648 382.522 119.581 381.577 118.501C379.461 116.086 381.206 113.354 380.032 108.132C379.537 105.925 378.762 102.552 376.171 100.555C372.329 97.594 367.178 99.4309 366.57 97.415C366.4 96.8529 366.902 95.9642 367.911 94.209C369.27 91.8445 370.568 90.2587 370.626 90.1865C373.222 87.0088 373.767 82.1008 373.964 80.3361C374.274 77.5572 373.657 77.6105 369.641 62.8868C368.233 57.7245 367.957 56.4214 366.795 54.7226C366.342 54.06 365.217 52.5497 364.46 50.182C364.184 49.3122 364.087 48.6717 363.886 47.6888C362.84 42.5077 363.667 41.371 362.357 35.1851C360.879 28.2141 358.389 27.5107 358.541 23.3627C358.581 22.2888 358.787 21.0956 358.073 19.9432C357.678 19.3057 357.152 19.2743 355.37 17.8487C354.364 17.0449 354.224 16.8376 354.145 16.5959C353.774 15.4434 355.042 14.0524 355.595 13.4307C358.517 10.1399 360.727 6.2399 363.448 2.76698C366.032 -0.511247 366.361 -1.10786 366.865 -0.985397ZM396.951 92.9247C397.863 92.6201 398.684 92.2307 398.684 92.2307C398.927 92.1177 399.171 91.9921 399.435 91.8476C400.84 91.0783 401.235 90.5099 403.348 89.9604C406.172 89.2257 408.936 89.3952 410.553 89.4957C411.411 89.5491 412.043 89.6245 412.529 89.6967C413.663 89.8694 414.031 89.9102 414.284 89.9322C416.165 90.0986 418.95 87.8691 419.561 85.1687C420.03 83.1025 418.795 82.6441 419.336 80.6564C419.71 79.2811 420.762 78.2605 422.848 76.276C425.052 74.1753 425.94 73.8425 425.87 73.0731C425.797 72.307 424.842 71.9207 421.367 70.4669C415.335 67.9485 415.284 67.8857 414.7 67.8606C412.128 67.7507 410.818 68.8466 408.34 67.9329C408.085 67.8387 407.881 67.7476 407.708 67.6565C407.042 67.3111 406.583 66.9908 406.504 66.9312C405.473 66.1933 402.712 66.4413 402.712 66.4413C398.398 66.8307 399.611 66.3503 396.462 66.815C388.275 68.0239 382.857 70.8688 382.194 71.2645C382.094 71.3241 380.388 72.3258 380.151 72.4577C379.868 72.6147 379.85 72.621 379.747 72.6995C377.275 74.5741 380.917 81.8873 382.449 89.6339C383.179 93.3297 383.371 94.4759 384.444 95.1164C384.575 95.1949 384.696 95.2577 384.839 95.3048C386.663 95.892 388.053 95.1353 390.737 94.3817C393.09 93.7191 395.297 93.4773 396.951 92.9247Z" fill="white" stroke="white" stroke-width="0.382329" stroke-miterlimit="10"/>
<path d="M366.471 66.7678C364.951 68.1997 362.418 69.3113 361.418 68.4509C360.26 67.4555 362.172 64.7048 360.74 63.028C359.986 62.1457 358.718 62.042 357.305 61.9259C355.976 61.816 354.699 61.7123 353.9 62.4408C353.06 63.2039 353.307 64.372 353.608 68.2123C353.851 71.2833 354.149 74.348 354.416 77.4158C354.599 79.504 354.644 80.2325 355.262 80.782C356.067 81.4948 357.022 81.1651 360.536 81.4037C362.862 81.5607 363.178 81.7554 363.391 81.9312C363.692 82.1793 364.236 82.7634 364.492 87.1971C364.671 90.3184 364.443 90.7486 364.142 91.0249C363.239 91.857 361.354 91.6309 360.579 90.6606C359.965 89.8913 360.469 89.1879 359.965 88.4689C359.229 87.4232 357.432 87.8942 354.125 88.1517C349.294 88.5317 348.421 87.8974 347.594 88.8802C346.29 90.4283 346.953 93.7944 347.144 94.7678C347.43 96.2123 347.853 96.9314 347.494 97.9927C347.165 98.9567 346.32 99.8202 345.259 100.097C343.873 100.458 342.38 99.7511 341.675 98.7024C341.097 97.8451 341.356 97.2202 341.413 92.8304C341.435 91.3012 341.444 90.535 341.401 90.2085C340.973 86.9459 338.939 85.9097 339.398 84.4998C339.671 83.6583 340.659 83.3192 342.629 82.6723C346.509 81.3974 348.226 82.1448 349.218 80.8636C349.674 80.2764 349.531 79.8368 349.309 76.3953C349.005 71.7135 349.187 71.2487 348.789 68.4038C348.19 64.1114 347.542 63.4771 347.245 63.2258C346.147 62.3058 344.752 62.3937 342.231 62.5507C339.75 62.7046 338.382 62.7925 337.704 63.8225C336.832 65.1476 337.601 67.2232 338.084 68.5169C338.838 70.5453 339.592 70.6992 339.574 71.8642C339.538 74.1658 336.555 75.6668 336.379 75.7516C335.777 76.0468 334.102 76.8632 332.262 76.1347C330.915 75.6009 329.648 74.304 329.493 72.8156C329.398 71.8956 329.754 71.1765 329.882 70.897C332.022 66.1807 328.222 56.0288 327.857 55.0711C326.893 52.5527 325.808 50.6373 326.611 49.6702C327.155 49.0139 328.343 49.0579 329.1 49.083C330.137 49.1175 330.912 49.4347 332.423 50.0658C334.083 50.7598 334.223 51.0078 335.175 51.2402C336.47 51.5574 337.501 51.416 337.957 51.3689C342.094 50.9388 352.2 52.6689 354.045 53.0175C354.045 53.0175 356.313 53.4477 357.11 52.5339C357.274 52.3455 357.411 52.1194 357.411 52.1194C357.736 51.5228 357.624 50.967 358.548 49.4912C358.657 49.3153 360.992 45.4656 363.09 45.6477C364.714 45.789 365.617 48.2854 367.319 52.9829C368.59 56.4967 369.222 58.2991 369.028 60.6259C368.943 61.7155 368.693 64.6734 366.471 66.7678Z" fill="white" stroke="white" stroke-width="0.382329" stroke-miterlimit="10"/>
<path d="M114.416 74.2945C111.904 75.4846 111.068 79.0863 110.077 83.3568C110.029 83.564 109.953 83.9157 109.907 84.3899C109.849 85.021 109.661 87.0966 110.773 88.6918C111.57 89.8316 112.427 89.8661 112.716 90.9966C112.85 91.521 112.789 91.9983 112.719 92.3123C112.719 92.3123 112.692 92.3939 112.655 92.4724C112.306 93.248 107.08 92.5352 104.961 94.0864C101.881 96.341 105.231 103.475 102.115 105.545C100.929 106.333 99.1294 106.169 98.2083 105.34C97.2749 104.496 97.3357 103.048 97.4847 100.448C97.5637 99.0697 97.5303 98.1057 98.4393 94.4004C99.9837 88.114 99.3787 86.1483 99.9807 83.4761C100.276 82.173 100.355 81.4916 100.865 80.9075C101.814 79.8242 103.039 80.0472 104.106 79.6892C106.617 78.8476 106.782 75.2868 109.618 67.0567C110.77 63.7156 112.178 60.1265 112.178 60.1265C112.376 59.6084 112.394 59.5645 112.415 59.5079C112.421 59.4954 112.427 59.4734 112.436 59.4483C113.619 56.2705 114.27 53.5261 114.27 53.5261C115.191 49.6984 114.595 49.5979 115.243 48.9479C116.395 47.7986 117.62 48.7155 120.52 47.3025C121.28 46.932 122.235 46.3479 122.773 46.0182C123.646 45.4844 124.26 45.0636 124.704 44.7622C129.027 41.8199 129.334 41.8356 129.535 41.933C130.352 42.3412 130.283 44.1561 129.997 47.516C129.751 50.3955 129.866 53.2969 129.711 56.1826C129.562 59.0087 129.705 57.9316 129.538 68.8183C129.419 76.5993 129.364 76.053 129.41 77.7769C129.556 83.1715 129.413 85.872 129.568 86.8862C130.048 90.0546 130.796 91.7094 129.854 92.7613C129.614 93.0313 129.167 93.3642 125.607 93.3579C121.253 93.3485 120.371 93.3234 119.897 92.4693C119.493 91.7376 120.034 91.0248 120.864 88.3935C120.864 88.3935 121.344 86.8705 122.031 83.6551C122.822 79.9592 123.691 75.8866 121.98 74.5457C121.603 74.2506 120.879 74.0967 119.438 74.1093C116.313 74.125 114.75 74.1344 114.416 74.2945ZM122.864 67.7946C123.789 67.1634 123.114 65.6248 122.907 60.7797C122.81 58.4906 122.895 57.3727 122.229 57.0367C121.584 56.7133 120.563 57.2879 119.997 57.9065C119.362 58.6036 119.292 59.4609 119.168 59.7592C117.389 64.0548 116.428 66.3721 117.276 67.3204C117.489 67.5591 118.398 67.6376 120.204 67.7852C121.791 67.9171 122.591 67.9799 122.864 67.7946Z" fill="white" stroke="white" stroke-width="0.382329" stroke-miterlimit="10"/>
<path d="M175.828 74.2945C173.317 75.4846 172.48 79.0863 171.489 83.3568C171.441 83.564 171.365 83.9157 171.319 84.3899C171.261 85.021 171.073 87.0966 172.186 88.6918C172.982 89.8316 173.839 89.8661 174.128 90.9966C174.262 91.521 174.201 91.9983 174.131 92.3123C174.131 92.3123 174.104 92.3939 174.067 92.4724C173.718 93.248 168.492 92.5352 166.373 94.0864C163.293 96.341 166.643 103.475 163.527 105.545C162.341 106.333 160.542 106.169 159.62 105.34C158.687 104.496 158.748 103.048 158.897 100.448C158.976 99.0697 158.942 98.1057 159.851 94.4004C161.396 88.114 160.791 86.1483 161.393 83.4761C161.688 82.173 161.767 81.4916 162.278 80.9075C163.226 79.8242 164.451 80.0472 165.518 79.6892C168.03 78.8476 168.194 75.2868 171.03 67.0567C172.183 63.7156 173.59 60.1265 173.59 60.1265C173.788 59.6084 173.806 59.5645 173.827 59.5079C173.833 59.4954 173.839 59.4734 173.849 59.4483C175.031 56.2705 175.682 53.5261 175.682 53.5261C176.603 49.6984 176.007 49.5979 176.655 48.9479C177.807 47.7986 179.032 48.7155 181.933 47.3025C182.693 46.932 183.647 46.3479 184.185 46.0182C185.058 45.4844 185.672 45.0636 186.116 44.7622C190.439 41.8199 190.746 41.8356 190.947 41.933C191.765 42.3412 191.695 44.1561 191.409 47.516C191.163 50.3955 191.278 53.2969 191.123 56.1826C190.974 59.0087 191.117 57.9316 190.95 68.8183C190.831 76.5993 190.777 76.053 190.822 77.7769C190.968 83.1715 190.825 85.872 190.98 86.8862C191.461 90.0546 192.208 91.7094 191.266 92.7613C191.026 93.0313 190.579 93.3642 187.019 93.3579C182.665 93.3485 181.784 93.3234 181.309 92.4693C180.905 91.7376 181.446 91.0248 182.276 88.3935C182.276 88.3935 182.756 86.8705 183.443 83.6551C184.234 79.9592 185.103 75.8866 183.392 74.5457C183.015 74.2506 182.291 74.0967 180.85 74.1093C177.725 74.125 176.162 74.1344 175.828 74.2945ZM184.277 67.7946C185.201 67.1634 184.526 65.6248 184.319 60.7797C184.222 58.4906 184.307 57.3727 183.641 57.0367C182.997 56.7133 181.975 57.2879 181.41 57.9065C180.774 58.6036 180.704 59.4609 180.58 59.7592C178.801 64.0548 177.84 66.3721 178.689 67.3204C178.901 67.5591 179.81 67.6376 181.616 67.7852C183.203 67.9171 184.003 67.9799 184.277 67.7946Z" fill="white" stroke="white" stroke-width="0.382329" stroke-miterlimit="10"/>
</g>
<defs>
<clipPath id="clip0_237_530">
<rect width="440" height="124" fill="white"/>
</clipPath>
</defs>
</svg>
