<svg width="64" height="64" viewBox="0 0 64 64" fill="none" xmlns="http://www.w3.org/2000/svg">
<path d="M32 0.000244141C14.3554 0.000244141 0 14.3557 0 32.0002C0 49.6448 14.3554 64.0002 32 64.0002C49.6446 64.0002 64 49.6462 64 32.0002C64 14.3543 49.6446 0.000244141 32 0.000244141ZM45.5446 46.3835C45.1427 46.9871 44.4807 47.3125 43.8062 47.3125C43.4084 47.3125 43.0065 47.1999 42.6504 46.962C39.2111 44.6687 33.3782 43.1388 28.5106 43.1402C23.3453 43.143 19.4734 44.4114 19.4345 44.4239C18.3441 44.7938 17.1606 44.1986 16.7962 43.1055C16.4318 42.0123 17.0229 40.8302 18.116 40.4672C18.2996 40.406 22.6763 38.9721 28.5106 38.9693C33.3782 38.9666 40.1485 40.2794 44.9661 43.4907C45.9257 44.1305 46.1844 45.4253 45.5446 46.3835ZM49.7058 37.8442C49.2538 38.5702 48.4736 38.9693 47.6766 38.9693C47.2455 38.9693 46.8088 38.8539 46.4166 38.6077C40.1805 34.722 33.7718 33.9 28.2505 33.9487C22.0171 34.0043 17.0326 35.1934 16.9478 35.2185C15.6864 35.5773 14.3596 34.8402 13.9994 33.5732C13.6392 32.3034 14.3777 30.9836 15.6461 30.6248C16.0313 30.5149 21.006 29.291 27.8166 29.234C34.0263 29.1826 41.7645 30.0824 48.9436 34.5551C50.0604 35.2505 50.4039 36.7247 49.7058 37.8442ZM53.8572 27.8586C53.3384 28.7403 52.4094 29.2312 51.4553 29.2312C50.9769 29.2312 50.4929 29.1075 50.0493 28.8488C42.7812 24.5819 33.9443 23.6765 27.811 23.6682C27.7818 23.6682 27.7526 23.6682 27.7234 23.6682C20.3065 23.6682 14.5946 24.9727 14.5376 24.9866C13.0384 25.3302 11.5461 24.4039 11.1984 22.9075C10.8507 21.4124 11.7783 19.9187 13.2734 19.5696C13.5307 19.5098 19.6334 18.1052 27.7234 18.1052C27.7554 18.1052 27.7874 18.1052 27.8194 18.1052C34.6411 18.1149 44.5238 19.1524 52.867 24.0507C54.191 24.8295 54.6346 26.5346 53.8572 27.8586Z" fill="black"/>
</svg>
