<svg width="48" height="48" viewBox="0 0 48 48" fill="none" xmlns="http://www.w3.org/2000/svg">
<g clip-path="url(#clip0_237_596)">
<path d="M33.812 14.3664C33.8215 14.3664 33.8343 14.3664 33.847 14.3664C34.1801 14.3664 34.4892 14.47 34.7426 14.6485L34.7378 14.6453C34.9227 14.8063 35.047 15.0325 35.0773 15.2875V15.2923C35.1092 15.4867 35.1267 15.7098 35.1267 15.9377C35.1267 16.0413 35.1235 16.1433 35.1155 16.2453V16.231C34.757 20.0063 33.2016 29.1616 32.4112 33.3879C32.0765 35.1776 31.4183 35.7768 30.7809 35.8341C29.396 35.9632 28.3442 34.9194 27.0024 34.0397C24.902 32.6612 23.7147 31.8039 21.6765 30.4604C19.3195 28.9098 20.8478 28.0541 22.1896 26.6612C22.5418 26.2947 28.647 20.7409 28.7665 20.2373C28.7729 20.207 28.7761 20.1736 28.7761 20.1385C28.7761 20.0142 28.7299 19.9011 28.655 19.815C28.5721 19.7608 28.4685 19.7306 28.3602 19.7306C28.2884 19.7306 28.2199 19.7449 28.1562 19.7688L28.1594 19.7672C27.949 19.815 24.5939 22.0323 18.094 26.419C17.3849 26.9784 16.4892 27.3321 15.5139 27.3736H15.5044C14.1227 27.2063 12.8685 26.8987 11.6781 26.4604L11.796 26.4987C10.3012 26.011 9.11394 25.7545 9.21594 24.929C9.27012 24.4997 9.86189 24.0604 10.9912 23.611C17.9479 20.58 22.587 18.5821 24.9084 17.6174C27.4693 16.258 30.4382 15.1393 33.5602 14.4142L33.8104 14.3648L33.812 14.3664ZM23.9442 -0.00012207C10.7139 0.0317504 0 10.7648 0 23.9999C0 37.2541 10.7442 47.9999 24 47.9999C37.2558 47.9999 48 37.2557 48 23.9999C48 10.7648 37.2861 0.0317504 24.059 -0.00012207H24.0558C24.0186 -0.00012207 23.9814 -0.00012207 23.9442 -0.00012207Z" fill="black"/>
</g>
<defs>
<clipPath id="clip0_237_596">
<rect width="48" height="48" fill="white"/>
</clipPath>
</defs>
</svg>
