<svg width="48" height="48" viewBox="0 0 48 48" fill="none" xmlns="http://www.w3.org/2000/svg">
<path d="M24 6.10352e-05C10.745 6.10352e-05 0 10.7451 0 24.0001C0 37.2551 10.745 48.0001 24 48.0001C37.255 48.0001 48 37.2551 48 24.0001C48 10.7451 37.255 6.10352e-05 24 6.10352e-05ZM33.23 27.0776C33.23 27.0776 35.3525 29.1726 35.875 30.1451C35.89 30.1651 35.8975 30.1851 35.9025 30.1951C36.115 30.5526 36.165 30.8301 36.06 31.0376C35.885 31.3826 35.285 31.5526 35.08 31.5676H31.33C31.07 31.5676 30.525 31.5001 29.865 31.0451C29.3575 30.6901 28.8575 30.1076 28.37 29.5401C27.6425 28.6951 27.0125 27.9651 26.3775 27.9651C26.2969 27.9649 26.2167 27.9776 26.14 28.0026C25.66 28.1576 25.045 28.8426 25.045 30.6676C25.045 31.2376 24.595 31.5651 24.2775 31.5651H22.56C21.975 31.5651 18.9275 31.3601 16.2275 28.5126C12.9225 25.0251 9.9475 18.0301 9.9225 17.9651C9.735 17.5126 10.1225 17.2701 10.545 17.2701H14.3325C14.8375 17.2701 15.0025 17.5776 15.1175 17.8501C15.2525 18.1676 15.7475 19.4301 16.56 20.8501C17.8775 23.1651 18.685 24.1051 19.3325 24.1051C19.4539 24.1036 19.5732 24.0727 19.68 24.0151C20.525 23.5451 20.3675 20.5326 20.33 19.9076C20.33 19.7901 20.3275 18.5601 19.895 17.9701C19.585 17.5426 19.0575 17.3801 18.7375 17.3201C18.867 17.1413 19.0377 16.9964 19.235 16.8976C19.815 16.6076 20.86 16.5651 21.8975 16.5651H22.475C23.6 16.5801 23.89 16.6526 24.2975 16.7551C25.1225 16.9526 25.14 17.4851 25.0675 19.3076C25.045 19.8251 25.0225 20.4101 25.0225 21.1001C25.0225 21.2501 25.015 21.4101 25.015 21.5801C24.99 22.5076 24.96 23.5601 25.615 23.9926C25.7004 24.0461 25.7992 24.0747 25.9 24.0751C26.1275 24.0751 26.8125 24.0751 28.6675 20.8926C29.2396 19.8682 29.7367 18.8038 30.155 17.7076C30.1925 17.6426 30.3025 17.4426 30.4325 17.3651C30.5284 17.3162 30.6348 17.2913 30.7425 17.2926H35.195C35.68 17.2926 36.0125 17.3651 36.075 17.5526C36.185 17.8501 36.055 18.7576 34.0225 21.5101L33.115 22.7076C31.2725 25.1226 31.2725 25.2451 33.23 27.0776Z" fill="black"/>
</svg>
