<svg width="64" height="64" viewBox="0 0 64 64" fill="none" xmlns="http://www.w3.org/2000/svg">
<path d="M32 0.000244141C14.3555 0.000244141 0 14.3557 0 32.0002C0 49.6448 14.3555 64.0002 32 64.0002C49.6459 64.0002 64 49.6448 64 32.0002C64 14.3557 49.6459 0.000244141 32 0.000244141ZM45.8755 38.3098C48.9878 41.0729 49.6348 42.0594 49.7405 42.2277C51.0303 44.2729 48.3103 44.522 48.3103 44.522H42.5781C42.5781 44.522 41.1826 44.5373 39.9903 43.747C38.0466 42.474 36.0111 40.0058 34.5809 40.4343C33.3802 40.7933 33.3913 42.4156 33.3913 43.8027C33.3913 44.2994 32.9642 44.522 32 44.522C31.0358 44.522 30.6351 44.522 30.208 44.522C27.0678 44.522 23.6605 43.4646 20.2616 39.9126C15.4532 34.8914 11.2362 24.7766 11.2362 24.7766C11.2362 24.7766 10.9871 24.2674 11.2584 23.9571C11.5659 23.6093 12.4021 23.6538 12.4021 23.6538L17.9603 23.6524C17.9603 23.6524 18.4835 23.7512 18.8591 24.0155C19.1694 24.2326 19.3419 24.6472 19.3419 24.6472C19.3419 24.6472 20.2755 27.7303 21.465 29.6962C23.7885 33.5335 24.8696 33.6309 25.6584 33.2176C26.8104 32.6194 26.4348 28.5401 26.4348 28.5401C26.4348 28.5401 26.4863 26.7884 25.8852 26.0079C25.4219 25.4041 24.5357 25.0827 24.1489 25.0326C23.8358 24.9922 24.359 24.4441 25.0254 24.131C25.9158 23.7345 27.1277 23.6329 29.2174 23.6524C30.8438 23.6677 31.3127 23.7651 31.9471 23.9112C33.8657 24.3536 33.3913 25.5209 33.3913 29.6197C33.3913 30.9331 33.2104 32.7794 34.201 33.3915C34.6282 33.6559 36.0918 33.9787 38.6963 29.7491C39.9332 27.7429 40.9169 24.4149 40.9169 24.4149C40.9169 24.4149 41.12 24.0489 41.4358 23.8681C41.7586 23.683 41.7489 23.6872 42.1913 23.6872C42.6337 23.6872 47.0706 23.6524 48.0445 23.6524C49.017 23.6524 49.9297 23.6413 50.087 24.2117C50.3123 25.0312 49.369 27.8389 46.9788 30.8858C43.0511 35.8862 42.6157 35.4187 45.8755 38.3098Z" fill="black"/>
</svg>
