<svg width="64" height="64" viewBox="0 0 64 64" fill="none" xmlns="http://www.w3.org/2000/svg">
<path d="M27.5582 0.015721C13.8283 2.02994 0 13.5668 0 31.952C0 49.8172 14.3672 64.0002 31.9564 64.0002C51.7724 64.0002 69.2582 44.6573 62.5346 22.3695C62.2451 21.412 61.093 21.0335 60.3164 21.6597L54.3606 26.4591C53.957 26.7834 53.7781 27.303 53.8713 27.8132C54.1093 29.1244 54.2329 30.4784 54.2329 31.851C54.2329 44.5737 43.6692 54.8048 30.8663 54.1884C20.4127 53.6852 10.6227 44.203 9.7723 33.7266C8.81337 21.911 17.0118 11.8246 28.0012 9.84668C28.6776 9.72647 29.181 9.15984 29.181 8.47073V1.39713C29.181 0.5319 28.4099 -0.108683 27.5582 0.015721ZM38.9479 0.523513C38.1896 0.519309 37.5316 1.1202 37.5316 1.92131V22.1757C35.8921 21.2224 33.9951 20.6687 31.9645 20.6687C25.8157 20.6687 20.8304 25.6756 20.8304 31.851C20.8304 38.0265 25.8157 43.0333 31.9645 43.0333C38.1134 43.0333 43.0987 38.0265 43.0987 31.851V12.4921C45.3422 13.7963 47.3452 15.4679 49.0056 17.4472C49.611 18.1698 50.7376 18.0993 51.24 17.2998L55.0891 11.1844C55.4315 10.6421 55.3715 9.92029 54.9233 9.45901C53.4286 7.91865 48.2537 2.71707 39.2768 0.564464C39.1659 0.538081 39.0562 0.524114 38.9479 0.523513Z" fill="black"/>
</svg>
